<svg xmlns="http://www.w3.org/2000/svg" viewBox="0 0 64 64">
  <rect width="64" height="64" rx="14" fill="#171614"/>
  <g transform="translate(13.08 45.46) scale(0.4962)">
    <path fill="#F7F5F0" d="M19.97 1.03L19.97 1.03Q14.79 1.03 10.67-0.81Q6.54-2.64 4.20-6.25Q1.86-9.86 1.86-15.23L1.86-15.23Q1.86-19.82 3.52-22.88Q5.18-25.93 8.06-27.83Q10.94-29.74 14.60-30.71Q18.26-31.69 22.36-32.08L22.36-32.08Q27.10-32.52 29.98-32.96Q32.86-33.40 34.20-34.30Q35.55-35.21 35.55-36.91L35.55-36.91L35.55-37.16Q35.55-40.53 33.42-42.38Q31.30-44.24 27.44-44.24L27.44-44.24Q23.39-44.24 20.97-42.46Q18.55-40.67 17.77-37.94L17.77-37.94L3.76-39.06Q4.83-44.04 7.96-47.68Q11.08-51.32 16.04-53.30Q21.00-55.27 27.54-55.27L27.54-55.27Q32.08-55.27 36.23-54.20Q40.38-53.13 43.63-50.90Q46.88-48.68 48.78-45.17Q50.68-41.65 50.68-36.82L50.68-36.82L50.68 0L36.28 0L36.28-7.62L35.89-7.62Q34.57-5.03 32.37-3.10Q30.18-1.17 27.10-0.07Q24.02 1.03 19.97 1.03ZM24.32-9.42L24.32-9.42Q27.64-9.42 30.20-10.77Q32.76-12.11 34.20-14.38Q35.64-16.65 35.64-19.48L35.64-19.48L35.64-25.29Q34.96-24.85 33.72-24.46Q32.47-24.07 30.96-23.78Q29.44-23.49 27.93-23.27Q26.42-23.05 25.20-22.85L25.20-22.85Q22.51-22.46 20.51-21.61Q18.51-20.75 17.41-19.31Q16.31-17.87 16.31-15.72L16.31-15.72Q16.31-12.65 18.55-11.04Q20.80-9.42 24.32-9.42Z"/>
    <path fill="#2FB380" d="M65.81 0.93L65.81 0.93Q62.20 0.93 59.71-1.51Q57.22-3.96 57.22-7.57L57.22-7.57Q57.22-11.18 59.71-13.62Q62.20-16.06 65.81-16.06L65.81-16.06Q69.43-16.06 71.92-13.62Q74.41-11.18 74.41-7.57L74.41-7.57Q74.41-3.96 71.92-1.51Q69.43 0.93 65.81 0.93Z"/>
  </g>
</svg>
