<svg xmlns="http://www.w3.org/2000/svg" viewBox="0 0 459.5 85.8" role="img" aria-label="adsmerce">
  <g transform="translate(4.14 78.75)">
    <path fill="#171614" d="M19.97 1.03L19.97 1.03Q14.79 1.03 10.67-0.81Q6.54-2.64 4.20-6.25Q1.86-9.86 1.86-15.23L1.86-15.23Q1.86-19.82 3.52-22.88Q5.18-25.93 8.06-27.83Q10.94-29.74 14.60-30.71Q18.26-31.69 22.36-32.08L22.36-32.08Q27.10-32.52 29.98-32.96Q32.86-33.40 34.20-34.30Q35.55-35.21 35.55-36.91L35.55-36.91L35.55-37.16Q35.55-40.53 33.42-42.38Q31.30-44.24 27.44-44.24L27.44-44.24Q23.39-44.24 20.97-42.46Q18.55-40.67 17.77-37.94L17.77-37.94L3.76-39.06Q4.83-44.04 7.96-47.68Q11.08-51.32 16.04-53.30Q21.00-55.27 27.54-55.27L27.54-55.27Q32.08-55.27 36.23-54.20Q40.38-53.13 43.63-50.90Q46.88-48.68 48.78-45.17Q50.68-41.65 50.68-36.82L50.68-36.82L50.68 0L36.28 0L36.28-7.62L35.89-7.62Q34.57-5.03 32.37-3.10Q30.18-1.17 27.10-0.07Q24.02 1.03 19.97 1.03ZM24.32-9.42L24.32-9.42Q27.64-9.42 30.20-10.77Q32.76-12.11 34.20-14.38Q35.64-16.65 35.64-19.48L35.64-19.48L35.64-25.29Q34.96-24.85 33.72-24.46Q32.47-24.07 30.96-23.78Q29.44-23.49 27.93-23.27Q26.42-23.05 25.20-22.85L25.20-22.85Q22.51-22.46 20.51-21.61Q18.51-20.75 17.41-19.31Q16.31-17.87 16.31-15.72L16.31-15.72Q16.31-12.65 18.55-11.04Q20.80-9.42 24.32-9.42ZM74.94 0.88L74.94 0.88Q68.69 0.88 63.66-2.34Q58.63-5.57 55.71-11.84Q52.78-18.12 52.78-27.20L52.78-27.20Q52.78-36.57 55.80-42.82Q58.83-49.07 63.86-52.17Q68.89-55.27 74.85-55.27L74.85-55.27Q79.44-55.27 82.51-53.74Q85.59-52.20 87.49-49.90Q89.40-47.61 90.37-45.36L90.37-45.36L90.81-45.36L90.81-72.75L105.95-72.75L105.95 0L91.06 0L91.06-8.74L90.37-8.74Q89.35-6.49 87.39-4.27Q85.44-2.05 82.39-0.59Q79.34 0.88 74.94 0.88ZM79.68-11.13L79.68-11.13Q83.34-11.13 85.91-13.16Q88.47-15.19 89.81-18.80Q91.15-22.41 91.15-27.25L91.15-27.25Q91.15-32.13 89.84-35.72Q88.52-39.31 85.93-41.28Q83.34-43.26 79.68-43.26L79.68-43.26Q75.97-43.26 73.43-41.21Q70.89-39.16 69.57-35.57Q68.25-31.98 68.25-27.25L68.25-27.25Q68.25-22.51 69.57-18.87Q70.89-15.23 73.45-13.18Q76.02-11.13 79.68-11.13ZM155.60-39.01L155.60-39.01L141.78-38.18Q141.24-40.77 138.90-42.65Q136.56-44.53 132.60-44.53L132.60-44.53Q129.09-44.53 126.72-43.07Q124.35-41.60 124.35-39.16L124.35-39.16Q124.35-37.21 125.89-35.82Q127.43-34.42 131.19-33.64L131.19-33.64L141.10-31.69Q149.06-30.08 152.96-26.46Q156.87-22.85 156.87-16.94L156.87-16.94Q156.87-11.52 153.74-7.50Q150.62-3.47 145.15-1.20Q139.68 1.07 132.60 1.07L132.60 1.07Q121.76 1.07 115.34-3.47Q108.92-8.01 107.85-15.77L107.85-15.77L122.64-16.55Q123.37-13.23 125.96-11.52Q128.55-9.81 132.60-9.81L132.60-9.81Q136.56-9.81 139.02-11.38Q141.49-12.94 141.49-15.33L141.49-15.33Q141.49-19.38 134.46-20.80L134.46-20.80L125.03-22.75Q117.07-24.37 113.17-28.27Q109.26-32.18 109.26-38.28L109.26-38.28Q109.26-43.55 112.14-47.36Q115.02-51.17 120.22-53.22Q125.42-55.27 132.41-55.27L132.41-55.27Q142.76-55.27 148.69-50.90Q154.62-46.53 155.60-39.01ZM173.76 0L158.67 0L158.67-54.59L172.97-54.59L172.97-44.87L173.66-44.87Q175.37-49.71 179.37-52.49Q183.38-55.27 188.89-55.27L188.89-55.27Q194.51-55.27 198.44-52.47Q202.37-49.66 203.69-44.87L203.69-44.87L204.27-44.87Q205.93-49.61 210.33-52.44Q214.72-55.27 220.68-55.27L220.68-55.27Q228.30-55.27 233.11-50.44Q237.92-45.61 237.92-36.72L237.92-36.72L237.92 0L222.78 0L222.78-33.69Q222.78-38.28 220.36-40.53Q217.95-42.77 214.33-42.77L214.33-42.77Q210.23-42.77 207.91-40.16Q205.59-37.55 205.59-33.30L205.59-33.30L205.59 0L190.94 0L190.94-34.08Q190.94-38.04 188.65-40.41Q186.35-42.77 182.64-42.77L182.64-42.77Q180.10-42.77 178.10-41.50Q176.10-40.23 174.93-38.01Q173.76-35.79 173.76-32.71L173.76-32.71L173.76 0ZM267.16 1.07L267.16 1.07Q258.76 1.07 252.65-2.34Q246.55-5.76 243.30-12.08Q240.06-18.41 240.06-27.05L240.06-27.05Q240.06-35.45 243.30-41.80Q246.55-48.14 252.48-51.71Q258.42-55.27 266.42-55.27L266.42-55.27Q271.84-55.27 276.53-53.54Q281.22-51.81 284.73-48.36Q288.25-44.92 290.20-39.72Q292.16-34.52 292.16-27.54L292.16-27.54L292.16-23.44L246.06-23.44L246.06-32.76L284.83-32.76L277.80-30.32Q277.80-34.47 276.53-37.55Q275.26-40.63 272.75-42.31Q270.23-43.99 266.52-43.99L266.52-43.99Q262.81-43.99 260.25-42.29Q257.68-40.58 256.32-37.65Q254.95-34.72 254.95-30.91L254.95-30.91L254.95-24.32Q254.95-19.87 256.51-16.72Q258.07-13.57 260.88-11.89Q263.69-10.21 267.35-10.21L267.35-10.21Q269.89-10.21 271.94-10.94Q273.99-11.67 275.48-13.09Q276.97-14.50 277.70-16.50L277.70-16.50L291.67-15.58Q290.64-10.55 287.40-6.81Q284.15-3.08 279.02-1.00Q273.89 1.07 267.16 1.07ZM309.19 0L294.10 0L294.10-54.59L308.70-54.59L308.70-45.02L309.29-45.02Q310.80-50.10 314.32-52.71Q317.83-55.32 322.37-55.32L322.37-55.32Q323.54-55.32 324.84-55.20Q326.13-55.08 327.16-54.79L327.16-54.79L327.16-41.41Q326.08-41.75 324.20-41.97Q322.32-42.19 320.71-42.19L320.71-42.19Q317.44-42.19 314.80-40.75Q312.17-39.31 310.68-36.74Q309.19-34.18 309.19-30.86L309.19-30.86L309.19 0ZM351.76 1.07L351.76 1.07Q343.41 1.07 337.40-2.51Q331.40-6.10 328.18-12.43Q324.95-18.75 324.95-27.05L324.95-27.05Q324.95-35.45 328.20-41.80Q331.45-48.14 337.45-51.71Q343.46-55.27 351.76-55.27L351.76-55.27Q358.89-55.27 364.24-52.69Q369.58-50.10 372.71-45.41Q375.83-40.72 376.13-34.38L376.13-34.38L361.87-34.38Q361.48-37.11 360.21-39.16Q358.94-41.21 356.84-42.33Q354.74-43.46 351.96-43.46L351.96-43.46Q348.44-43.46 345.83-41.58Q343.21-39.70 341.77-36.06Q340.33-32.42 340.33-27.25L340.33-27.25Q340.33-22.07 341.77-18.36Q343.21-14.65 345.83-12.70Q348.44-10.74 351.96-10.74L351.96-10.74Q355.86-10.74 358.55-13.21Q361.23-15.67 361.87-20.02L361.87-20.02L376.13-20.02Q375.78-13.77 372.76-9.01Q369.73-4.25 364.41-1.59Q359.08 1.07 351.76 1.07ZM403.02 1.07L403.02 1.07Q394.62 1.07 388.52-2.34Q382.42-5.76 379.17-12.08Q375.92-18.41 375.92-27.05L375.92-27.05Q375.92-35.45 379.17-41.80Q382.42-48.14 388.35-51.71Q394.28-55.27 402.29-55.27L402.29-55.27Q407.71-55.27 412.40-53.54Q417.08-51.81 420.60-48.36Q424.12-44.92 426.07-39.72Q428.02-34.52 428.02-27.54L428.02-27.54L428.02-23.44L381.93-23.44L381.93-32.76L420.70-32.76L413.67-30.32Q413.67-34.47 412.40-37.55Q411.13-40.63 408.61-42.31Q406.10-43.99 402.39-43.99L402.39-43.99Q398.68-43.99 396.11-42.29Q393.55-40.58 392.18-37.65Q390.81-34.72 390.81-30.91L390.81-30.91L390.81-24.32Q390.81-19.87 392.38-16.72Q393.94-13.57 396.75-11.89Q399.55-10.21 403.22-10.21L403.22-10.21Q405.76-10.21 407.81-10.94Q409.86-11.67 411.35-13.09Q412.84-14.50 413.57-16.50L413.57-16.50L427.53-15.58Q426.51-10.55 423.26-6.81Q420.01-3.08 414.89-1.00Q409.76 1.07 403.02 1.07Z"/>
    <path fill="#0E6F4E" d="M440.76 0.93L440.76 0.93Q437.14 0.93 434.65-1.51Q432.16-3.96 432.16-7.57L432.16-7.57Q432.16-11.18 434.65-13.62Q437.14-16.06 440.76-16.06L440.76-16.06Q444.37-16.06 446.86-13.62Q449.35-11.18 449.35-7.57L449.35-7.57Q449.35-3.96 446.86-1.51Q444.37 0.93 440.76 0.93Z"/>
  </g>
</svg>
